<svg xmlns="http://www.w3.org/2000/svg" viewBox="0 0 1600 900" role="img" aria-label="Dastarkhan Hyderabadi Restaurant Website thumbnail">
  <defs>
    <linearGradient id="dBg" x1="0" y1="0" x2="1" y2="1">
      <stop offset="0" stop-color="#0D0A00"/>
      <stop offset="1" stop-color="#1A0E00"/>
    </linearGradient>
    <linearGradient id="dGold" x1="0" y1="0" x2="1" y2="0">
      <stop offset="0" stop-color="#B8860B"/>
      <stop offset="0.5" stop-color="#FFD700"/>
      <stop offset="1" stop-color="#B8860B"/>
    </linearGradient>
    <linearGradient id="dGoldV" x1="0" y1="0" x2="0" y2="1">
      <stop offset="0" stop-color="#FFD700"/>
      <stop offset="1" stop-color="#B8860B"/>
    </linearGradient>
    <linearGradient id="dBrowser" x1="0" y1="0" x2="0" y2="1">
      <stop offset="0" stop-color="#1C1300"/>
      <stop offset="1" stop-color="#120D00"/>
    </linearGradient>
    <linearGradient id="dHero" x1="0" y1="0" x2="0" y2="1">
      <stop offset="0" stop-color="#2D1A00"/>
      <stop offset="1" stop-color="#1A0D00"/>
    </linearGradient>
    <linearGradient id="dBtn" x1="0" y1="0" x2="1" y2="0">
      <stop offset="0" stop-color="#B8860B"/>
      <stop offset="1" stop-color="#DAA520"/>
    </linearGradient>
    <filter id="dGlow">
      <feGaussianBlur stdDeviation="8" result="blur"/>
      <feMerge><feMergeNode in="blur"/><feMergeNode in="SourceGraphic"/></feMerge>
    </filter>
    <filter id="dShadow" x="-10%" y="-10%" width="120%" height="120%">
      <feGaussianBlur in="SourceAlpha" stdDeviation="12"/>
      <feOffset dx="0" dy="8"/>
      <feComponentTransfer><feFuncA type="linear" slope="0.6"/></feComponentTransfer>
      <feMerge><feMergeNode/><feMergeNode in="SourceGraphic"/></feMerge>
    </filter>
  </defs>

  <!-- Deep dark background -->
  <rect width="1600" height="900" fill="url(#dBg)"/>

  <!-- Ambient gold glows -->
  <circle cx="400" cy="450" r="350" fill="#B8860B" opacity="0.06"/>
  <circle cx="1350" cy="300" r="300" fill="#FFD700" opacity="0.04"/>

  <!-- Decorative Islamic-style geometric border lines (top + bottom) -->
  <rect x="0" y="0" width="1600" height="4" fill="url(#dGold)"/>
  <rect x="0" y="896" width="1600" height="4" fill="url(#dGold)"/>
  <rect x="0" y="10" width="1600" height="1" fill="#FFD700" opacity="0.2"/>
  <rect x="0" y="889" width="1600" height="1" fill="#FFD700" opacity="0.2"/>

  <!-- Decorative diamond pattern top-left and top-right -->
  <g fill="none" stroke="#FFD700" stroke-opacity="0.18" stroke-width="1">
    <path d="M60 30 L90 60 L60 90 L30 60 Z"/>
    <path d="M90 60 L120 90 L90 120 L60 90 Z"/>
    <path d="M30 60 L60 90 L30 120 L0 90 Z"/>
  </g>
  <g fill="none" stroke="#FFD700" stroke-opacity="0.18" stroke-width="1" transform="translate(1480 30)">
    <path d="M60 0 L90 30 L60 60 L30 30 Z"/>
    <path d="M90 30 L120 60 L90 90 L60 60 Z"/>
    <path d="M30 30 L60 60 L30 90 L0 60 Z"/>
  </g>

  <!-- ======= LEFT: Browser mockup showing restaurant site ======= -->
  <g transform="translate(54 80)" filter="url(#dShadow)">
    <!-- Browser outer frame -->
    <rect width="740" height="720" rx="14" fill="url(#dBrowser)" stroke="#B8860B" stroke-width="1.5" stroke-opacity="0.8"/>

    <!-- Browser chrome bar -->
    <rect width="740" height="46" rx="14" fill="#1C1400"/>
    <rect y="30" width="740" height="16" fill="#1C1400"/>
    <!-- Traffic lights -->
    <circle cx="28" cy="23" r="7" fill="#FF5F57"/>
    <circle cx="50" cy="23" r="7" fill="#FEBC2E"/>
    <circle cx="72" cy="23" r="7" fill="#28C840"/>
    <!-- URL bar -->
    <rect x="96" y="11" width="480" height="24" rx="12" fill="#0D0A00"/>
    <text x="200" y="28" font-family="Inter, Segoe UI, sans-serif" font-size="13" fill="#B8860B">dastarkhan-elegance.replit.app</text>
    <!-- Padlock icon -->
    <g transform="translate(106 17)">
      <rect x="1" y="4" width="10" height="8" rx="2" fill="#FFD700" opacity="0.8"/>
      <path d="M3 4 V2.5 A3 3 0 0 1 9 2.5 V4" stroke="#FFD700" stroke-width="1.5" fill="none" opacity="0.8"/>
    </g>
    <!-- React badge in URL bar -->
    <rect x="596" y="12" width="76" height="22" rx="11" fill="#2D1A00"/>
    <circle cx="611" cy="23" r="7" fill="#61DAFB" opacity="0.9"/>
    <text x="622" y="28" font-family="Inter, Segoe UI, sans-serif" font-size="12" fill="#61DAFB">React 19</text>

    <!-- HERO section of website -->
    <rect y="46" width="740" height="200" fill="url(#dHero)"/>
    <!-- Hero background texture dots -->
    <g fill="#FFD700" opacity="0.06">
      <circle cx="100" cy="100" r="60"/><circle cx="300" cy="80" r="40"/><circle cx="550" cy="120" r="80"/>
      <circle cx="680" cy="70" r="50"/>
    </g>
    <!-- Biryani bowl illustration (simplified) -->
    <g transform="translate(80 80)">
      <!-- Plate -->
      <ellipse cx="80" cy="100" rx="75" ry="25" fill="#2D1A00" stroke="#B8860B" stroke-width="1.5"/>
      <!-- Rice mound -->
      <path d="M20 100 Q80 50 140 100" fill="#D4A017" opacity="0.85"/>
      <!-- Rice grains -->
      <g fill="#FFD700" opacity="0.6">
        <ellipse cx="60" cy="82" rx="4" ry="2" transform="rotate(-20 60 82)"/>
        <ellipse cx="80" cy="72" rx="4" ry="2" transform="rotate(10 80 72)"/>
        <ellipse cx="100" cy="80" rx="4" ry="2" transform="rotate(-15 100 80)"/>
        <ellipse cx="75" cy="65" rx="3" ry="1.5" transform="rotate(5 75 65)"/>
      </g>
      <!-- Saffron colour on top -->
      <path d="M55 78 Q80 62 105 78" fill="none" stroke="#FF8C00" stroke-width="3" opacity="0.7"/>
      <!-- Steam wisps -->
      <path d="M60 55 Q55 40 62 30 Q68 20 64 10" stroke="#FFD700" stroke-width="1.5" fill="none" stroke-linecap="round" opacity="0.4"/>
      <path d="M80 50 Q75 35 82 25 Q88 15 84 5" stroke="#FFD700" stroke-width="1.5" fill="none" stroke-linecap="round" opacity="0.35"/>
      <path d="M100 55 Q95 40 102 30 Q108 20 104 10" stroke="#FFD700" stroke-width="1.5" fill="none" stroke-linecap="round" opacity="0.4"/>
    </g>
    <!-- Hero text in site -->
    <text x="240" y="110" font-family="Georgia, serif" font-size="30" font-weight="700" fill="#FFD700">Dastarkhan</text>
    <text x="240" y="138" font-family="Georgia, serif" font-size="14" fill="#D4A017">Four Centuries of Hyderabadi Heritage</text>
    <rect x="240" y="150" width="120" height="30" rx="15" fill="#B8860B"/>
    <text x="300" y="170" text-anchor="middle" font-family="Inter, sans-serif" font-size="12" font-weight="700" fill="#ffffff">Reserve Table</text>
    <rect x="370" y="150" width="100" height="30" rx="15" fill="none" stroke="#B8860B" stroke-width="1.5"/>
    <text x="420" y="170" text-anchor="middle" font-family="Inter, sans-serif" font-size="12" fill="#FFD700">View Menu</text>

    <!-- NAV bar (site nav) -->
    <rect y="46" width="740" height="36" fill="#0D0A00" fill-opacity="0.85"/>
    <text x="24" y="68" font-family="Georgia, serif" font-size="16" font-weight="700" fill="#FFD700">Dastarkhan</text>
    <g font-family="Inter, sans-serif" font-size="11" fill="#D4A017">
      <text x="230" y="69">Menu</text>
      <text x="310" y="69">Heritage</text>
      <text x="400" y="69">Chef</text>
      <text x="470" y="69">Reviews</text>
    </g>
    <rect x="560" y="55" width="80" height="20" rx="10" fill="#B8860B"/>
    <text x="600" y="69" text-anchor="middle" font-family="Inter, sans-serif" font-size="10" font-weight="700" fill="#ffffff">Book Now</text>

    <!-- MENU SECTION mock -->
    <rect y="246" width="740" height="160" fill="#120D00"/>
    <text x="370" y="276" text-anchor="middle" font-family="Georgia, serif" font-size="16" font-weight="700" fill="#FFD700">Our Signature Dishes</text>
    <!-- Dish cards -->
    <g transform="translate(20 286)">
      <rect width="145" height="102" rx="8" fill="#1C1400" stroke="#B8860B" stroke-width="0.8"/>
      <rect y="0" width="145" height="54" rx="8" fill="#2D1A00"/>
      <!-- dish colour block -->
      <ellipse cx="72" cy="28" rx="35" ry="22" fill="#D4A017" opacity="0.6"/>
      <text x="72" y="76" text-anchor="middle" font-family="Inter, sans-serif" font-size="10" font-weight="600" fill="#FFD700">Dum Biryani</text>
      <text x="72" y="90" text-anchor="middle" font-family="Inter, sans-serif" font-size="9" fill="#B8860B">£14.95</text>
      <rect x="10" y="95" width="28" height="12" rx="6" fill="#2D1A00"/>
      <text x="24" y="104" text-anchor="middle" font-family="Inter, sans-serif" font-size="7" fill="#22C55E">Halal</text>
    </g>
    <g transform="translate(175 286)">
      <rect width="145" height="102" rx="8" fill="#1C1400" stroke="#B8860B" stroke-width="0.8"/>
      <rect y="0" width="145" height="54" rx="8" fill="#2D1A00"/>
      <ellipse cx="72" cy="28" rx="35" ry="22" fill="#8B0000" opacity="0.6"/>
      <text x="72" y="76" text-anchor="middle" font-family="Inter, sans-serif" font-size="10" font-weight="600" fill="#FFD700">Mutton Haleem</text>
      <text x="72" y="90" text-anchor="middle" font-family="Inter, sans-serif" font-size="9" fill="#B8860B">£13.95</text>
      <rect x="10" y="95" width="28" height="12" rx="6" fill="#2D1A00"/>
      <text x="24" y="104" text-anchor="middle" font-family="Inter, sans-serif" font-size="7" fill="#22C55E">Halal</text>
    </g>
    <g transform="translate(330 286)">
      <rect width="145" height="102" rx="8" fill="#1C1400" stroke="#B8860B" stroke-width="0.8"/>
      <rect y="0" width="145" height="54" rx="8" fill="#2D1A00"/>
      <ellipse cx="72" cy="28" rx="35" ry="22" fill="#556B2F" opacity="0.6"/>
      <text x="72" y="76" text-anchor="middle" font-family="Inter, sans-serif" font-size="10" font-weight="600" fill="#FFD700">Veg Manchurian</text>
      <text x="72" y="90" text-anchor="middle" font-family="Inter, sans-serif" font-size="9" fill="#B8860B">£9.95</text>
      <rect x="10" y="95" width="20" height="12" rx="6" fill="#2D1A00"/>
      <text x="20" y="104" text-anchor="middle" font-family="Inter, sans-serif" font-size="7" fill="#22C55E">V</text>
    </g>
    <g transform="translate(485 286)">
      <rect width="145" height="102" rx="8" fill="#1C1400" stroke="#B8860B" stroke-width="0.8"/>
      <rect y="0" width="145" height="54" rx="8" fill="#2D1A00"/>
      <ellipse cx="72" cy="28" rx="35" ry="22" fill="#8B4513" opacity="0.6"/>
      <text x="72" y="76" text-anchor="middle" font-family="Inter, sans-serif" font-size="10" font-weight="600" fill="#FFD700">Boti Kebab</text>
      <text x="72" y="90" text-anchor="middle" font-family="Inter, sans-serif" font-size="9" fill="#B8860B">£12.95</text>
      <rect x="10" y="95" width="28" height="12" rx="6" fill="#2D1A00"/>
      <text x="24" y="104" text-anchor="middle" font-family="Inter, sans-serif" font-size="7" fill="#22C55E">Halal</text>
    </g>

    <!-- RESERVATION FORM mock -->
    <rect y="406" width="740" height="140" fill="#0D0A00"/>
    <text x="370" y="432" text-anchor="middle" font-family="Georgia, serif" font-size="14" fill="#FFD700">Reserve Your Table</text>
    <!-- Form fields -->
    <g transform="translate(20 444)">
      <rect width="160" height="28" rx="6" fill="#1C1400" stroke="#B8860B" stroke-width="0.8" stroke-opacity="0.6"/>
      <text x="10" y="19" font-family="Inter, sans-serif" font-size="11" fill="#5A4A00">Select Date</text>
      <rect x="178" width="160" height="28" rx="6" fill="#1C1400" stroke="#B8860B" stroke-width="0.8" stroke-opacity="0.6"/>
      <text x="188" y="19" font-family="Inter, sans-serif" font-size="11" fill="#5A4A00">Time Slot</text>
      <rect x="356" width="120" height="28" rx="6" fill="#1C1400" stroke="#B8860B" stroke-width="0.8" stroke-opacity="0.6"/>
      <text x="366" y="19" font-family="Inter, sans-serif" font-size="11" fill="#5A4A00">Guests</text>
      <rect x="498" width="60" height="28" rx="6" fill="#B8860B"/>
      <text x="528" y="19" text-anchor="middle" font-family="Inter, sans-serif" font-size="11" font-weight="700" fill="#ffffff">Book</text>
    </g>
    <!-- Zod/React Hook Form badges -->
    <g transform="translate(20 488)" font-family="Inter, sans-serif" font-size="10">
      <rect width="72" height="18" rx="9" fill="#1C1400" stroke="#B8860B" stroke-width="0.6"/>
      <text x="36" y="13" text-anchor="middle" fill="#FFD700">React Hook Form</text>
      <rect x="80" width="42" height="18" rx="9" fill="#1C1400" stroke="#B8860B" stroke-width="0.6"/>
      <text x="101" y="13" text-anchor="middle" fill="#FFD700">Zod</text>
      <rect x="130" width="60" height="18" rx="9" fill="#1C1400" stroke="#B8860B" stroke-width="0.6"/>
      <text x="160" y="13" text-anchor="middle" fill="#FFD700">shadcn/ui</text>
      <text x="210" y="13" fill="#22C55E" font-weight="700">✓ WCAG 2.1</text>
    </g>

    <!-- Testimonials section mock -->
    <rect y="546" width="740" height="90" fill="#0A0800"/>
    <text x="370" y="572" text-anchor="middle" font-family="Georgia, serif" font-size="13" fill="#FFD700">What Our Guests Say</text>
    <!-- Stars -->
    <g fill="#FFD700">
      <text x="230" y="598" font-size="16">★★★★★</text>
    </g>
    <text x="370" y="598" text-anchor="middle" font-family="Inter, sans-serif" font-size="11" fill="#B8860B">"The best Hyderabadi biryani in London. Authentic flavours, superb service."</text>
    <text x="370" y="616" text-anchor="middle" font-family="Inter, sans-serif" font-size="10" fill="#5A4A00">— Arjun K., verified guest</text>
    <!-- Carousel dots -->
    <g transform="translate(340 630)" fill="#B8860B">
      <circle r="5" cx="0" cy="0"/>
      <circle r="3" cx="14" cy="0" opacity="0.5"/>
      <circle r="3" cx="28" cy="0" opacity="0.5"/>
    </g>

    <!-- Footer mock -->
    <rect y="636" width="740" height="84" fill="#080600"/>
    <text x="370" y="666" text-anchor="middle" font-family="Georgia, serif" font-size="14" font-weight="700" fill="#FFD700">Dastarkhan</text>
    <text x="370" y="684" text-anchor="middle" font-family="Inter, sans-serif" font-size="10" fill="#5A4A00">London, UK · Open 12 PM – Midnight · ☎ +44 20 XXXX XXXX</text>
    <g font-family="Inter, sans-serif" font-size="9" fill="#3A2A00" text-anchor="middle">
      <text x="290" y="702">Menu</text><text x="340" y="702">Heritage</text>
      <text x="400" y="702">Chef</text><text x="455" y="702">Reservations</text>
    </g>

    <!-- React Hot Module indicator -->
    <g transform="translate(10 702)">
      <rect width="90" height="16" rx="8" fill="#0D0A00"/>
      <circle cx="8" cy="8" r="4" fill="#22C55E"/>
      <text x="16" y="12" font-family="Inter, sans-serif" font-size="9" fill="#22C55E">HMR active</text>
    </g>
  </g>

  <!-- ======= RIGHT: Title + metrics + CTA ======= -->
  <g font-family="Inter, Segoe UI, sans-serif">
    <!-- Ornamental top label -->
    <g transform="translate(860 100)">
      <line x1="0" y1="10" x2="50" y2="10" stroke="#FFD700" stroke-width="1" stroke-opacity="0.5"/>
      <circle cx="56" cy="10" r="3" fill="#FFD700"/>
      <text x="70" y="16" font-size="14" font-weight="600" fill="#B8860B" letter-spacing="4">FULL STACK &#8226; WEB</text>
      <circle cx="326" cy="10" r="3" fill="#FFD700"/>
      <line x1="332" y1="10" x2="382" y2="10" stroke="#FFD700" stroke-width="1" stroke-opacity="0.5"/>
    </g>

    <!-- Project number -->
    <text x="860" y="192" font-size="100" font-weight="900" fill="#FFD700" fill-opacity="0.08" font-family="Georgia, serif">07</text>

    <!-- Main title -->
    <text x="860" y="230" font-size="60" font-weight="800" fill="#FFD700" letter-spacing="-1" font-family="Georgia, serif">Dastarkhan</text>
    <!-- Gold underline -->
    <rect x="860" y="242" width="300" height="3" fill="url(#dGold)"/>
    <text x="860" y="280" font-size="26" font-weight="500" fill="#D4A017">Hyderabadi Elegance Restaurant</text>
    <text x="860" y="315" font-size="20" font-weight="400" fill="#7A6000">React 19 · TypeScript · Express.js · PostgreSQL</text>

    <!-- Description lines -->
    <text x="860" y="365" font-size="20" fill="#B8860B">Full-stack pnpm monorepo — 9+ animated UI</text>
    <text x="860" y="391" font-size="20" fill="#B8860B">sections, type-safe API, production reservation</text>
    <text x="860" y="417" font-size="20" fill="#B8860B">system with WCAG-compliant components.</text>

    <!-- Metric grid (4 gold cards) -->
    <g transform="translate(860 448)">
      <!-- Card 1 -->
      <rect width="152" height="88" rx="10" fill="#1C1400" stroke="#B8860B" stroke-width="1"/>
      <text x="76" y="42" text-anchor="middle" font-family="Georgia, serif" font-size="36" font-weight="800" fill="#FFD700">9+</text>
      <text x="76" y="68" text-anchor="middle" font-size="12" fill="#7A6000">UI Sections</text>

      <!-- Card 2 -->
      <rect x="166" width="152" height="88" rx="10" fill="#1C1400" stroke="#B8860B" stroke-width="1"/>
      <text x="242" y="42" text-anchor="middle" font-family="Georgia, serif" font-size="36" font-weight="800" fill="#FFD700">&lt;200</text>
      <text x="242" y="58" text-anchor="middle" font-size="11" fill="#FFD700">KB</text>
      <text x="242" y="76" text-anchor="middle" font-size="12" fill="#7A6000">Gzipped Bundle</text>

      <!-- Card 3 -->
      <rect x="332" width="152" height="88" rx="10" fill="#1C1400" stroke="#B8860B" stroke-width="1"/>
      <text x="408" y="42" text-anchor="middle" font-family="Georgia, serif" font-size="36" font-weight="800" fill="#FFD700">60%</text>
      <text x="408" y="60" text-anchor="middle" font-size="12" fill="#FFD700">&#8595;</text>
      <text x="408" y="76" text-anchor="middle" font-size="12" fill="#7A6000">Integration Time</text>

      <!-- Card 4 -->
      <rect x="498" width="152" height="88" rx="10" fill="#1C1400" stroke="#B8860B" stroke-width="1"/>
      <text x="574" y="42" text-anchor="middle" font-family="Georgia, serif" font-size="28" font-weight="800" fill="#FFD700">Zero</text>
      <text x="574" y="62" text-anchor="middle" font-size="12" fill="#B8860B">Invalid Forms</text>
      <text x="574" y="76" text-anchor="middle" font-size="11" fill="#7A6000">in Testing</text>
    </g>

    <!-- Tech stack pills -->
    <g transform="translate(860 570)">
      <text x="0" y="14" font-size="13" fill="#5A4A00" letter-spacing="2">BUILT WITH</text>
      <g transform="translate(0 24)" font-size="13">
        <rect width="84" height="26" rx="13" fill="#1C1400" stroke="#B8860B" stroke-width="0.8"/>
        <text x="42" y="18" text-anchor="middle" fill="#FFD700">React 19</text>
        <rect x="92" width="100" height="26" rx="13" fill="#1C1400" stroke="#B8860B" stroke-width="0.8"/>
        <text x="142" y="18" text-anchor="middle" fill="#FFD700">TypeScript 5.9</text>
        <rect x="200" width="96" height="26" rx="13" fill="#1C1400" stroke="#B8860B" stroke-width="0.8"/>
        <text x="248" y="18" text-anchor="middle" fill="#FFD700">Express.js 5</text>
        <rect x="304" width="104" height="26" rx="13" fill="#1C1400" stroke="#B8860B" stroke-width="0.8"/>
        <text x="356" y="18" text-anchor="middle" fill="#FFD700">PostgreSQL</text>
        <rect x="416" width="100" height="26" rx="13" fill="#1C1400" stroke="#B8860B" stroke-width="0.8"/>
        <text x="466" y="18" text-anchor="middle" fill="#FFD700">Drizzle ORM</text>
      </g>
      <g transform="translate(0 62)" font-size="13">
        <rect width="94" height="26" rx="13" fill="#1C1400" stroke="#B8860B" stroke-width="0.8"/>
        <text x="47" y="18" text-anchor="middle" fill="#FFD700">Tailwind CSS</text>
        <rect x="102" width="122" height="26" rx="13" fill="#1C1400" stroke="#B8860B" stroke-width="0.8"/>
        <text x="163" y="18" text-anchor="middle" fill="#FFD700">Framer Motion</text>
        <rect x="232" width="86" height="26" rx="13" fill="#1C1400" stroke="#B8860B" stroke-width="0.8"/>
        <text x="275" y="18" text-anchor="middle" fill="#FFD700">shadcn/ui</text>
        <rect x="326" width="92" height="26" rx="13" fill="#1C1400" stroke="#B8860B" stroke-width="0.8"/>
        <text x="372" y="18" text-anchor="middle" fill="#FFD700">Zod + RHF</text>
        <rect x="426" width="90" height="26" rx="13" fill="#1C1400" stroke="#B8860B" stroke-width="0.8"/>
        <text x="471" y="18" text-anchor="middle" fill="#FFD700">TanStack Q</text>
      </g>
    </g>

    <!-- VIEW PROJECT button -->
    <g transform="translate(860 710)" filter="url(#dShadow)">
      <rect width="280" height="68" rx="34" fill="url(#dBtn)"/>
      <path d="M36 22 L36 46 L58 34 Z" fill="#1C1400"/>
      <text x="80" y="42" font-size="20" font-weight="800" fill="#1C1400" letter-spacing="2">VIEW PROJECT</text>
    </g>
    <!-- Ornamental dots -->
    <g transform="translate(1162 744)" fill="#B8860B" opacity="0.6">
      <circle cx="0" cy="0" r="4"/>
      <circle cx="14" cy="0" r="4"/>
      <circle cx="28" cy="0" r="4"/>
      <circle cx="42" cy="0" r="4"/>
    </g>
  </g>

  <!-- Bottom brand line -->
  <text x="800" y="876" text-anchor="middle" font-family="Inter, Segoe UI, sans-serif" font-size="14" fill="#3A2A00">vamshi-yadav-golla.github.io/portfolio · AI Agent Engineer · Full-Stack Developer</text>
</svg>
